<svg width="640" height="480" xmlns="http://www.w3.org/2000/svg">

 <g>
  <title>background</title>
  <rect fill="none" id="canvas_background" height="482" width="642" y="-1" x="-1"/>
 </g>
 <g>
  <title>Layer 1</title>
  <g stroke="null" id="svg_1" fill-rule="evenodd" fill="none">
   <path stroke="null" id="svg_2" d="m364.399671,246.936014c22.508404,-36.609475 17.579578,-84.707391 -12.289246,-115.688586c-16.939334,-17.570614 -39.46296,-27.247427 -63.419285,-27.247427c-23.958227,0 -46.481853,9.676813 -63.421187,27.247427c-16.941237,17.569627 -26.269953,40.931331 -26.269953,65.781016c0,24.847712 9.328716,48.209415 26.269953,65.779043c16.939334,17.570614 39.461057,27.245454 63.417382,27.245454c17.19429,0 33.756899,-5.00171 48.12099,-14.498939l43.894243,45.528483c3.673075,3.810732 8.572411,5.90851 13.7971,5.90851c5.222787,0 10.122123,-2.097778 13.7971,-5.90851c7.603959,-7.890841 7.603959,-20.727148 -0.001903,-28.617988l-43.894243,-45.528483l-0.000951,0zm37.973181,68.003121c-2.091969,2.167835 -4.886968,3.361772 -7.872234,3.361772c-2.987168,0 -5.782167,-1.193937 -7.873185,-3.361772l-46.320127,-48.043646a4.176327,4.331723 0 0 0 -2.961482,-1.272875c-0.830509,0 -1.663871,0.254575 -2.387832,0.774579c-13.608737,9.791273 -29.610063,14.967633 -46.269707,14.967633c-21.718803,0 -42.138092,-8.771986 -57.494418,-24.70069c-31.704886,-32.883601 -31.704886,-86.389757 -0.000951,-119.273358c15.358228,-15.92969 35.776567,-24.701676 57.498223,-24.701676c21.718803,0 42.138092,8.771986 57.496321,24.701676c27.832984,28.87059 31.780992,74.132658 9.383893,107.626055a4.186792,4.342577 0 0 0 0.481372,5.548355l46.319176,48.042659c4.339955,4.50144 4.339955,11.827874 0,16.330301l0.000951,0.000987z" fill-rule="nonzero" fill="#6DAD5C"/>
   <path stroke="null" id="svg_3" d="m289.026959,267.080007c31.859952,0 58.521852,-23.000562 65.43705,-53.862364c-6.915198,-30.859828 -33.576147,-53.861377 -65.43705,-53.861377c-31.861855,0 -58.522803,23.000562 -65.438001,53.861377c6.915198,30.860815 33.576147,53.862364 65.438001,53.862364z" fill="#CCE4FF"/>
   <g stroke="null" id="svg_4" fill="#6DAD5C">
    <path stroke="null" id="svg_5" d="m289.05645,210.018681c-10.488384,0 -20.596237,3.9469 -28.466568,11.110525l-4.591106,4.178781l8.062499,9.523871l4.591106,-4.178781a30.920992,32.071526 0 0 1 20.408825,-7.960898c7.52595,0 14.758892,2.816113 20.377431,7.93031l4.591106,4.178781l8.061548,-9.520911l-4.593008,-4.183714c-7.849402,-7.14389 -17.948693,-11.077963 -28.441833,-11.077963z"/>
    <path stroke="null" id="svg_6" d="m289.026959,121.335775c-40.425703,0 -73.313089,34.111087 -73.313089,76.040984c0,41.92891 32.887386,76.039997 73.313089,76.039997c40.421898,0 73.312138,-34.111087 73.312138,-76.039997c0,-41.929897 -32.89024,-76.040984 -73.312138,-76.040984zm0,139.407484c-33.686501,0 -61.094241,-28.42755 -61.094241,-63.367487s27.40774,-63.367487 61.094241,-63.367487s61.094241,28.42755 61.094241,63.367487s-27.40774,63.367487 -61.094241,63.367487z" fill-rule="nonzero"/>
    <path stroke="null" id="svg_7" d="m258.479838,178.366513l12.218848,0l0,12.672511l-12.218848,0l0,-12.672511zm48.874441,0l12.218848,0l0,12.672511l-12.218848,0l0,-12.672511z"/>
   </g>
  </g>
  <g stroke="null" transform="rotate(-0.5452643036842346 480.948822021489,75.27629089355679) " id="svg_14">
   <g stroke="#6DAD5C" transform="matrix(0.78390113025748,0,0,1.0653927111277637,-1096.5202091010028,-287.85138855307025) " id="svg_11" fill-rule="nonzero" fill="none">
    <path stroke="null" id="svg_12" d="m1952.331658,359.839269c0,-18.296 14.8,-33.127 33.056,-33.127c4.855,0 9.465,1.049 13.618,2.933c7.279,-12.73 20.97,-21.306 36.66,-21.306c15.356,0 28.797,8.216 36.186,20.5a42.1,42.1 0 0 1 13.258,-2.127c23.318,0 42.222,18.944 42.222,42.313c0,1.457 -0.073,2.896 -0.217,4.314" fill="#FFF"/>
    <path stroke="null" id="svg_13" d="m1836.831658,359.339269l115.5,0m175.5,14l60,0" stroke-linecap="square"/>
   </g>
  </g>
  <g stroke="null" transform="rotate(-0.5452643036842346 182.9488220214841,371.27630615234284) " id="svg_18">
   <g stroke="#6DAD5C" transform="matrix(0.78390113025748,0,0,1.0653927111277637,-1096.5202091010028,-287.85138855307025) " id="svg_17" fill-rule="nonzero" fill="none">
    <path stroke="null" id="svg_15" d="m1572.181666,637.671088c0,-18.296 14.8,-33.127 33.056,-33.127c4.855,0 9.465,1.049 13.618,2.933c7.279,-12.73 20.97,-21.306 36.66,-21.306c15.356,0 28.797,8.216 36.186,20.5a42.1,42.1 0 0 1 13.258,-2.127c23.318,0 42.222,18.944 42.222,42.313c0,1.457 -0.073,2.896 -0.217,4.314" fill="#FFF"/>
    <path stroke="null" id="svg_16" d="m1456.681666,637.171088l115.5,0m175.5,14l60,0" stroke-linecap="square"/>
   </g>
  </g>
 </g>
</svg>